PathFileType	4	(X/Y/Z)	D:\Share\Shared_Data\Ergonomics\Sit To Stand Pertubation\S1\Perturbed_NoHarness.trc
DataRate	CameraRate	NumFrames	NumMarkers	Units	OrigDataRate	OrigDataStartFrame	OrigNumFrames	
100	100	16	18	m	100	8654	221
Frame#	Time	L_ASIS			R_ASIS			R_Pelvis			V_Sacral			L_Pelvis			Clavical			R_Acromium			L_Acromium			Sternum			Torso			R_Thigh_Med			R_Thigh_Lat			R_Thigh			R_Shank_Med			R_Shank_Lat			R_Shank			R_Heel			R_Toe			
		X1	Y1	Z1	X2	Y2	Z2	X3	Y3	Z3	X4	Y4	Z4	X5	Y5	Z5	X6	Y6	Z6	X7	Y7	Z7	X8	Y8	Z8	X9	Y9	Z9	X10	Y10	Z10	X11	Y11	Z11	X12	Y12	Z12	X13	Y13	Z13	X14	Y14	Z14	X15	Y15	Z15	X16	Y16	Z16	X17	Y17	Z17	X18	Y18	Z18	

8654	86.53	0.49681516	0.90109668	-0.11075454	0.47957208	0.89655426	0.089356827	0.43563852	0.88502734	0.12624569	0.31050723	0.89931104	-0.021209568	0.40771591	0.90319806	-0.16937843	0.44521146	1.246347	-0.017871866	0.3772092	1.3199264	0.13264418	0.33357751	1.269524	-0.21392416	0.42990115	1.2634198	0.085578682	0.43914743	1.2551021	-0.075862724	0.34971841	0.42042615	0.057747742	0.36996286	0.44282971	0.17459366	0.46497235	0.60013788	0.10992958	0.34125931	0.10143358	0.09934832	0.316974	0.1020189	0.1802841	0.3348421	0.31342505	0.19467931	0.27171414	0.033642693	0.12397266	0.47782034	0.044929401	0.14171577
8655	86.54	0.49721008	0.90090936	-0.11090886	0.47985141	0.89652417	0.089360603	0.435896	0.88503943	0.12620763	0.31086172	0.89930316	-0.021331867	0.40813086	0.9031618	-0.16939983	0.4455062	1.2462635	-0.017914003	0.37740735	1.3198391	0.1326076	0.33392014	1.2694432	-0.21398872	0.43012296	1.2633473	0.085564453	0.43945013	1.2550634	-0.07588221	0.34993399	0.42042429	0.057681408	0.3700874	0.4427872	0.17454573	0.46517474	0.60010541	0.10993185	0.34131326	0.10144141	0.09932547	0.31699045	0.10204511	0.18025232	0.33490973	0.31344293	0.19462677	0.27172577	0.033655979	0.1239586	0.47782373	0.044919758	0.14171581
8656	86.55	0.49758615	0.90071552	-0.11105799	0.48013474	0.8964939	0.08937159	0.43615521	0.88503448	0.12618229	0.31119699	0.89929578	-0.021442846	0.40851932	0.90312549	-0.16941377	0.44577921	1.2462023	-0.017946417	0.3775947	1.3197539	0.13257249	0.33425061	1.2693695	-0.21405324	0.43033304	1.2632765	0.085549835	0.43974115	1.2550247	-0.075901176	0.35013327	0.42042245	0.057626854	0.37020267	0.4427543	0.17449568	0.46536279	0.60007477	0.10993705	0.34136319	0.10144898	0.09930455	0.31700702	0.10206809	0.18022363	0.33497458	0.31345905	0.19458179	0.27173669	0.033668282	0.1239456	0.47782672	0.044910759	0.14171614
8657	86.56	0.4979408	0.90051685	-0.1112013	0.48042075	0.89646368	0.089389595	0.43641345	0.88501538	0.12616798	0.31151251	0.89928949	-0.021541904	0.40888403	0.90308856	-0.16942183	0.44603366	1.246158	-0.017971994	0.3777735	1.3196707	0.1325376	0.33457047	1.269302	-0.21411826	0.43053284	1.2632075	0.085534134	0.44002145	1.254986	-0.075920059	0.35031531	0.42042078	0.057584209	0.37030865	0.44273032	0.17444666	0.4655361	0.60004596	0.10994546	0.34140875	0.10145627	0.099285912	0.31702338	0.10208781	0.18019841	0.33503616	0.31347333	0.19454474	0.27174673	0.0336796	0.12393384	0.47782925	0.044902565	0.1417168
8658	86.57	0.49827213	0.90031525	-0.11133827	0.48070688	0.89643372	0.089414047	0.43666736	0.88498535	0.12616325	0.31180765	0.89928479	-0.021628815	0.40922684	0.90305115	-0.16942503	0.44627277	1.2461263	-0.017993433	0.37794598	1.3195912	0.13250191	0.3348812	1.2692406	-0.21418399	0.430724	1.2631414	0.085516754	0.44029227	1.2549463	-0.075939346	0.35047925	0.42041925	0.057553207	0.37040533	0.44271405	0.17440157	0.46569415	0.60001886	0.1099573	0.34144968	0.10146328	0.099269836	0.31703909	0.1021043	0.180177	0.33509381	0.31348581	0.19451573	0.2717558	0.033689922	0.12392347	0.47783124	0.044895363	0.14171788
8659	86.58	0.49857874	0.90011237	-0.11146851	0.48098944	0.89640417	0.089444138	0.43691302	0.88494781	0.12616672	0.31208191	0.89928223	-0.021703671	0.40954895	0.90301361	-0.16942401	0.44649969	1.2461028	-0.018013102	0.37811487	1.3195157	0.13246449	0.33518381	1.2691843	-0.21425049	0.43090839	1.2630787	0.085497185	0.44055466	1.2549054	-0.07595948	0.35062436	0.42041794	0.057533195	0.3704924	0.4427041	0.17436263	0.46583643	0.59999329	0.10997274	0.34148575	0.10146993	0.099256538	0.31705389	0.10211761	0.18015958	0.33514688	0.3134964	0.19449484	0.27176367	0.033699265	0.12391466	0.47783261	0.044889328	0.14171948
8660	86.59	0.49885974	0.89991028	-0.11159181	0.48126416	0.89637518	0.089478859	0.43714664	0.88490601	0.12617732	0.3123345	0.89928192	-0.021766863	0.40985092	0.90297638	-0.16941907	0.4467175	1.246084	-0.018032963	0.37828268	1.3194457	0.13242471	0.3354791	1.2691323	-0.21431761	0.43108795	1.2630197	0.08547506	0.44080969	1.2548632	-0.075980896	0.35075018	0.42041687	0.05752327	0.37056921	0.44269873	0.17433142	0.46596259	0.59996924	0.10999181	0.34151675	0.10147621	0.099246147	0.31706744	0.10212779	0.18014622	0.33519464	0.31350507	0.19448184	0.27177039	0.033707638	0.12390746	0.47783325	0.044884605	0.14172159
8661	86.6	0.49911453	0.89971033	-0.11170808	0.48152643	0.89634668	0.089517059	0.43736459	0.88486261	0.12619416	0.31256482	0.89928406	-0.021819019	0.41013269	0.90294019	-0.16941029	0.4469288	1.2460669	-0.018054535	0.37845197	1.319382	0.13238219	0.33576761	1.2690844	-0.21438501	0.43126483	1.2629655	0.085450089	0.44105829	1.2548196	-0.076003922	0.35085638	0.42041602	0.057522282	0.3706351	0.44269611	0.17430885	0.46607208	0.59994641	0.1100145	0.34154272	0.10148205	0.099238716	0.3170795	0.10213495	0.18013692	0.33523639	0.31351169	0.19447636	0.27177585	0.033715046	0.1239019	0.4778331	0.044881344	0.14172429
8662	86.61	0.4993429	0.89951398	-0.11181742	0.48177127	0.89631879	0.089557571	0.43756378	0.88481995	0.12621651	0.31277234	0.8992887	-0.021860935	0.41039374	0.90290582	-0.16939767	0.44713589	1.2460498	-0.018078875	0.37862494	1.3193253	0.13233669	0.33604947	1.2690392	-0.21445216	0.43144089	1.2629159	0.08542215	0.44130115	1.254775	-0.076028824	0.35094296	0.42041544	0.05752898	0.37068933	0.44269455	0.17429512	0.46616458	0.59992511	0.11004072	0.34156357	0.10148734	0.0992342	0.31708975	0.10213921	0.18013156	0.33527142	0.3135163	0.19447792	0.27178003	0.033721512	0.12389799	0.47783212	0.044879608	0.14172757
8663	86.62	0.49954456	0.89932184	-0.11192014	0.48199399	0.8962915	0.089599266	0.43774146	0.88477966	0.12624374	0.31295657	0.89929596	-0.021893505	0.41063345	0.9028736	-0.16938124	0.44734052	1.2460311	-0.018106552	0.37880365	1.3192767	0.13228835	0.33632471	1.2689967	-0.21451843	0.43161795	1.2628715	0.085391281	0.44153891	1.2547296	-0.076055733	0.35101016	0.42041501	0.057542049	0.37073096	0.4426925	0.17429001	0.46623987	0.59990509	0.11007026	0.3415795	0.10149206	0.099232513	0.31709818	0.10214069	0.18012987	0.33529907	0.31351874	0.19448576	0.27178287	0.033726994	0.12389562	0.47783032	0.044879436	0.14173135
8664	86.63	0.49971948	0.8991347	-0.11201669	0.48219009	0.89626465	0.089641098	0.43789545	0.88474304	0.12627522	0.31311725	0.89930597	-0.021917664	0.4108508	0.90284399	-0.16936111	0.44754398	1.2460103	-0.018137674	0.37898953	1.3192366	0.13223747	0.33659323	1.2689572	-0.21458304	0.43179752	1.2628325	0.085357666	0.44177194	1.2546835	-0.076084648	0.35105841	0.42041476	0.057560215	0.37075937	0.44268875	0.17429282	0.46629758	0.59988641	0.11010287	0.34159052	0.10149609	0.09923349	0.31710449	0.1021396	0.18013156	0.33531882	0.31351904	0.19449915	0.27178452	0.033731464	0.12389467	0.47782776	0.044880798	0.14173558
8665	86.64	0.4998678	0.89895227	-0.11210773	0.48235538	0.89623828	0.089682121	0.43802408	0.88471063	0.12631038	0.31325427	0.89931879	-0.021934317	0.4110448	0.9028175	-0.16933751	0.44774701	1.2459868	-0.018171917	0.3791839	1.3192053	0.13218457	0.33685483	1.2689198	-0.21464514	0.43198074	1.262799	0.08532164	0.44200061	1.2546368	-0.076115395	0.35108832	0.42041464	0.057582302	0.3707738	0.44268253	0.17430273	0.46633762	0.59986926	0.11013828	0.34159695	0.10149934	0.099236923	0.31710861	0.10213606	0.18013623	0.3353302	0.31351715	0.19451724	0.271785	0.033734863	0.12389495	0.47782446	0.044883625	0.14174014
8666	86.65	0.49998962	0.89877429	-0.11219406	0.48248602	0.8962121	0.089721581	0.43812622	0.8846828	0.1263485	0.31336777	0.89933459	-0.021944313	0.41121472	0.90279401	-0.1693109	0.44794992	1.2459606	-0.018208548	0.37938736	1.3191829	0.13213026	0.33710922	1.2688853	-0.21470395	0.43216837	1.26277	0.085283752	0.44222501	1.25459	-0.076147652	0.35110065	0.42041461	0.057607254	0.37077393	0.44267346	0.17431886	0.46635986	0.59985345	0.11017609	0.341599	0.10150176	0.099242577	0.31711047	0.10213029	0.18014352	0.33533295	0.31351315	0.19453915	0.27178436	0.033737083	0.12389626	0.47782056	0.044887779	0.14174493
8667	86.66	0.50008517	0.89860016	-0.11227656	0.48257855	0.89618585	0.089758881	0.43820114	0.8846593	0.12638888	0.31345804	0.89935358	-0.021948383	0.41135971	0.90277344	-0.16928178	0.4481524	1.2459318	-0.018246485	0.37960022	1.3191697	0.13207538	0.33735623	1.2688539	-0.21475853	0.43236078	1.2627456	0.085244659	0.44244519	1.2545425	-0.076180969	0.35109637	0.42041449	0.057634205	0.37075961	0.44266174	0.17434039	0.46636435	0.59983905	0.11021591	0.34159683	0.10150323	0.099250214	0.31711005	0.10212247	0.18015297	0.335327	0.31350708	0.19456415	0.27178275	0.033738029	0.12389836	0.47781616	0.044893105	0.14174982
8668	86.67	0.50015479	0.89842896	-0.11235619	0.48263019	0.89615942	0.089793556	0.43824854	0.88463989	0.12643072	0.31352554	0.89937573	-0.021947149	0.41147931	0.90275574	-0.16925087	0.44835394	1.2458998	-0.018284372	0.37982239	1.319165	0.13202074	0.33759589	1.2688262	-0.21480804	0.43255789	1.2627252	0.085205139	0.44266116	1.2544946	-0.07621476	0.35107626	0.42041418	0.057662457	0.37073108	0.44264795	0.17436674	0.46635117	0.59982587	0.11025731	0.34159076	0.10150368	0.09925959	0.3171073	0.10211278	0.18016417	0.33531244	0.31349899	0.19459143	0.27178018	0.033737579	0.12390107	0.47781143	0.044899426	0.14175459
8669	86.68	0.50019891	0.89825995	-0.11243387	0.48263867	0.89613226	0.089825325	0.43826855	0.88462427	0.12647325	0.31357101	0.89940125	-0.021941105	0.41157336	0.9027406	-0.16921896	0.44855368	1.2458654	-0.018320654	0.38005328	1.3191682	0.13196725	0.337828	1.2688021	-0.21485172	0.43275922	1.262708	0.085166054	0.4428728	1.2544464	-0.076248329	0.35104135	0.42041351	0.057691517	0.3706889	0.44263315	0.17439746	0.46632056	0.59981384	0.11029985	0.34158105	0.10150301	0.099270515	0.31710223	0.10210136	0.1801768	0.33528949	0.31348901	0.19462044	0.27177676	0.033735622	0.12390414	0.47780646	0.044906563	0.14175919
